<svg xmlns="http://www.w3.org/2000/svg" version="1.1" xmlns:xlink="http://www.w3.org/1999/xlink" width="2000" height="1500" viewBox="0 0 2000 1500"><rect width="2000" height="1500" x="0" y="0" id="background" stroke="transparent" fill="#ffffff"></rect><svg xml:space="preserve" width="1500" height="1125" data-version="2" data-id="lg_mXGK27CBp2znTpdKRL" viewBox="0 0 770 460" x="250" y="187.5"><rect width="100%" height="100%" fill="transparent"></rect><path fill="#273ed4" d="M118.585 419.456q0 3.65-1.29 7.05-1.28 3.41-3.28 6.4-4.89 7.47-12.4 12.2-7.52 4.73-16.23 6.97-8.72 2.24-17.35 2.24-18.26 0-31.84-7.68-13.57-7.67-21.04-21.45-7.47-13.78-7.47-31.88 0-12.2 4.32-23.12 4.31-10.91 12.12-19.38 7.8-8.46 18.38-13.28 10.59-4.81 23.12-4.81 3.9 0 7.8.45 3.91.46 7.64 1.62 2.32.75 4.65 1.66 2.32.91 4.81.91 2.24 0 4.03-1.12 1.78-1.12 3.53-2.2 1.74-1.07 3.73-1.07 4.24 0 5.56 2.65 1.33 2.66 2.25 5.98l7.47 25.9q.33 1.08.33 2.4 0 3.91-3.16 5.86-3.15 1.95-6.64 1.95-4.06 0-6.6-2.83-2.53-2.82-4.69-7.01-2.15-4.19-5.02-8.34-2.86-4.15-7.47-6.97-4.61-2.83-12.16-2.83-7.39 0-11.95 3.86-4.57 3.86-6.97 9.88-2.41 6.02-3.28 12.74-.88 6.73-.88 12.37 0 10.13 2.99 19.42 2.99 9.3 9.88 15.24 6.89 5.93 18.59 5.93 6.23 0 11.29-2.53 5.07-2.53 9.13-5.89 4.07-3.37 7.1-5.9 3.03-2.53 5.11-2.53 3.07 0 4.48 2.2 1.41 2.2 1.41 4.94"></path><rect width="110.9" height="121.6" x="-55.45" y="-60.8" fill="none" rx="0" ry="0" transform="translate(63.63 394.02)"></rect><path fill="#273ed4" d="M127.555 431.906q0-7.64 3.56-12.74 3.57-5.11 9.34-8.22 5.77-3.11 12.5-4.44 6.72-1.33 12.94-1.33 1.83 0 3.74.04 1.91.04 3.74.38v-21.59q0-2.07-.88-4.81-.87-2.74-3.52-2.74-2.58 0-3.2 2.12-.62 2.11-.62 4.02 0 .83.04 1.71.04.87.04 1.78 0 8.55-5.89 11.99-5.9 3.45-13.45 3.45-6.31 0-10.96-2.82-4.65-2.82-4.65-9.96 0-2.83 1.12-5.48 1.13-2.66 2.87-4.73 5.06-6.15 12.74-9.38 7.68-3.24 16.19-4.44 8.51-1.21 15.98-1.21 8.46 0 15.52 2.41 7.05 2.41 11.29 8.01 4.23 5.6 4.23 15.07v38.26q0 1.41.66 2.49.67 1.08 2.25 1.08 1.24 0 2.11-.79.87-.79 2.12-.79 2.41 0 3.61 1.66 1.2 1.66 1.2 3.91 0 5.81-3.52 10-3.53 4.19-8.76 6.39-5.23 2.2-10.54 2.2-6.23 0-12.58-2.74t-8.76-8.55q-4.23 5.89-11.58 8.59-7.34 2.7-14.4 2.7-6.47 0-12.08-2.45-5.6-2.45-9-7.26-3.4-4.82-3.4-11.79m37.43-7.3q0 3.32 1.58 6.26 1.58 2.95 5.39 2.95.75 0 1.42-.17v-17.18q-1.42-.58-2.91-.58-3.15 0-4.32 3.11-1.16 3.12-1.16 5.61"></path><rect width="94.62" height="89.9" x="-47.31" y="-44.95" fill="none" rx="0" ry="0" transform="translate(175.37 408.96)"></rect><path fill="#273ed4" d="M269.825 401.776v24.24q0 4.81 1.12 6.47 1.12 1.66 5.94 2.66 4.23.83 6.76 1.95 2.53 1.12 2.53 6.35 0 3.73-2.24 5.64-2.24 1.91-5.89 1.91h-43.83q-3.57 0-5.89-1.91-2.33-1.91-2.33-5.64 0-2.99 1.12-4.48 1.12-1.5 2.58-2.7 1.45-1.21 2.57-3.16 1.12-1.95 1.12-5.93v-30.13q0-3.74-1.29-5.61-1.28-1.86-2.9-2.94-1.62-1.08-2.91-2.45-1.28-1.37-1.28-4.11 0-3.24 2.11-5.11 2.12-1.86 4.86-2.94l20.75-8.22q1.99-.83 4.07-1.58 2.07-.74 4.31-.74 2.91 0 4.32 2.2 1.41 2.2 1.95 5.06.54 2.86.79 5.02l.5 2.99q.25 1.49.41 2.99 2.58-7.64 7.93-12.95t14.82-5.31q6.72 0 10.58 3.32 3.86 3.32 5.52 8.5 1.66 5.19 1.66 11 0 5.4-1.41 10.42t-4.94 8.26q-3.53 3.24-9.92 3.24-6.97 0-10.17-2.16-3.19-2.16-4.11-5.31-.91-3.16-.95-6.31-.04-3.16-.54-5.31-.5-2.16-2.99-2.16-2.24 0-3.24 3.11-.99 3.11-1.24 6.68t-.25 5.15"></path><rect width="84.58" height="87.65" x="-42.29" y="-43.83" fill="none" rx="0" ry="0" transform="translate(267.8 407.67)"></rect><path fill="#273ed4" d="M396.575 396.126q0 7.39-4.35 11.21-4.36 3.82-11.5 3.82h-33.45q1.91 7.14 6.8 11.99 4.9 4.86 14.11 4.86 3.66 0 7.27-1.54 3.61-1.53 6.8-3.61 3.2-2.07 5.61-3.61 2.4-1.53 3.65-1.53 2.41 0 3.49 1.7t1.08 3.86q0 7.55-3.53 13.24-3.53 5.68-9.3 9.42-5.77 3.73-12.62 5.6-6.84 1.87-13.49 1.87-13.03 0-22.99-5.4-9.96-5.39-15.56-15.14-5.61-9.76-5.61-22.96 0-14.11 5.44-24.57t15.65-16.22q10.21-5.77 24.49-5.77 9.87 0 18.55 3.73 8.67 3.74 14.07 11.04 5.39 7.31 5.39 18.01m-50.8 2.25v1.82h8.64q3.15 0 4.31-1.45 1.16-1.45 1.16-4.44 0-1.99-.49-5.23-.5-3.24-1.95-5.81-1.46-2.58-4.2-2.58-2.49 0-3.98 2.04-1.5 2.03-2.24 5.06-.75 3.03-1 5.94-.25 2.9-.25 4.65"></path><rect width="83.59" height="90.06" x="-41.8" y="-45.03" fill="none" rx="0" ry="0" transform="translate(355.28 408.88)"></rect><path fill="#273ed4" d="M442.315 363.346q3.4 0 5.19 2.36 1.78 2.37 1.78 5.52v7.64q6.56-6.06 14.45-10.79 7.88-4.73 15.6-4.73 8.05 0 13.37 3.98 5.31 3.98 8.01 10.38 2.69 6.39 2.69 13.78v34.53q0 2.32.21 4.56.21 2.24 1.79 4.24 1.91 2.4 3.36 3.73t1.45 4.9q0 3.65-2.24 5.6-2.24 1.95-5.81 1.95h-34.7q-3.48 0-5.35-2.07-1.87-2.08-1.87-5.48 0-3.16 1.45-4.94 1.46-1.79 2.91-3.74 1.45-1.95 1.45-5.52v-28.8q0-3.9-1.53-7.64-1.54-3.73-6.35-3.73-2.91 0-4.99 1.12-2.07 1.12-3.9 2.86v33.95q0 2.24.17 4.53.17 2.28 1.66 4.19 1.74 2.07 2.9 3.36 1.17 1.29 1.17 4.36 0 3.4-1.87 5.48-1.87 2.07-5.35 2.07h-34.7q-3.57 0-5.81-1.95-2.24-1.95-2.24-5.6 0-2.74 1.03-4.28 1.04-1.53 2.37-2.86 1.33-1.33 2.37-3.24 1.03-1.91 1.03-5.23v-30.79q0-3.74-1.16-5.65-1.16-1.91-2.74-3.03-1.58-1.12-2.74-2.45-1.16-1.32-1.16-3.98 0-3.24 2.16-5.11 2.16-1.86 4.81-2.94l17.93-7.22q3.16-1.33 6.44-2.33 3.27-.99 6.76-.99"></path><rect width="106" height="87.65" x="-53" y="-43.83" fill="none" rx="0" ry="0" transform="translate(457.71 407.67)"></rect><path fill="#273ed4" d="M600.775 396.126q0 7.39-4.36 11.21-4.35 3.82-11.49 3.82h-33.45q1.91 7.14 6.8 11.99 4.9 4.86 14.11 4.86 3.66 0 7.27-1.54 3.61-1.53 6.8-3.61 3.2-2.07 5.61-3.61 2.4-1.53 3.65-1.53 2.41 0 3.49 1.7 1.07 1.7 1.07 3.86 0 7.55-3.52 13.24-3.53 5.68-9.3 9.42-5.77 3.73-12.62 5.6-6.85 1.87-13.49 1.87-13.03 0-22.99-5.4-9.96-5.39-15.56-15.14-5.61-9.76-5.61-22.96 0-14.11 5.44-24.57t15.65-16.22q10.21-5.77 24.49-5.77 9.87 0 18.55 3.73 8.67 3.74 14.07 11.04 5.39 7.31 5.39 18.01m-50.8 2.25v1.82h8.63q3.16 0 4.32-1.45 1.16-1.45 1.16-4.44 0-1.99-.49-5.23-.5-3.24-1.96-5.81-1.45-2.58-4.19-2.58-2.49 0-3.98 2.04-1.5 2.03-2.24 5.06-.75 3.03-1 5.94-.25 2.9-.25 4.65"></path><rect width="83.59" height="90.06" x="-41.8" y="-45.03" fill="none" rx="0" ry="0" transform="translate(559.48 408.88)"></rect><path fill="#273ed4" d="M646.345 377.536q-2.82 0-5.06 1.25-2.24 1.24-2.24 4.48 0 2.65 1.24 4.07 1.25 1.41 3.57 2.4 2.49 1.08 5.23 1.58t5.32 1.08q7.63 1.66 14.27 5.6 6.64 3.94 10.75 10.13 4.11 6.18 4.11 14.65 0 11.37-5.15 18.1-5.14 6.72-13.65 9.62-8.51 2.91-18.64 2.91-2.57 0-7.09-.66-4.53-.67-6.68-1.83h-.09q-.83-.42-2.74-.91-1.91-.5-2.82-.5-2.57 0-4.4 2.03-1.82 2.04-4.48 2.04-3.57 0-5.6-2.33-2.04-2.32-3.08-5.52-1.03-3.19-1.86-5.93-.58-2.33-1.33-4.61-.75-2.28-.75-4.69 0-4.32 2.33-6.97 2.32-2.66 6.72-2.66 4.32 0 7.14 1.87 2.82 1.87 5.02 4.61 2.2 2.73 4.48 5.52 2.29 2.78 5.52 4.64 3.24 1.87 8.14 1.87 3.4 0 5.14-2.03 1.75-2.04 1.75-5.27 0-4.65-2.49-5.98t-6.39-2.08q-7.14-1.41-13.58-3.32-6.43-1.9-11.37-5.23-4.94-3.32-7.8-8.79-2.86-5.48-2.86-14.12 0-10.21 5.56-16.64t14.15-9.5q8.59-3.07 17.47-3.07 3.41 0 6.68.25 3.28.24 6.52 1.32.42.09 1.95.67 1.54.58 3.03 1.12l1.5.54q2.73 0 4.69-1.95 1.95-1.95 4.69-1.95 3.48 0 5.14 2.69 1.66 2.7 2.37 6.27.7 3.57 1.12 6.06.33 1.91.66 3.86t.33 3.86q0 3.32-1.53 6.27-1.54 2.94-5.44 2.94-3.9 0-6.89-2.69-2.99-2.7-5.97-6.19-2.99-3.48-6.89-6.18-3.91-2.7-9.72-2.7"></path><rect width="78.36" height="90.23" x="-39.18" y="-45.12" fill="none" rx="0" ry="0" transform="translate(644.86 408.96)"></rect><path fill="#273ed4" d="M728.025 453.406q-14.19 0-22.37-6.6-8.17-6.6-8.17-21.54v-36.11q0-3.57-1.58-5.31-1.58-1.74-3.65-2.86-2.08-1.13-3.66-2.74-1.57-1.62-1.57-4.94 0-3.41 2.4-5.36 2.41-1.95 5.65-1.95h3.73q2.41 0 4.78-2.45 2.36-2.45 4.81-6.1 2.45-3.65 5.15-7.26t5.77-6.06q3.07-2.45 6.72-2.45 4.15 0 6.48 2.33 2.32 2.32 2.32 6.47v15.52h18.84q3.16 0 5.4 1.5 2.24 1.49 2.24 4.98 0 4.65-2.95 7.05-2.94 2.41-7.09 3.2t-7.81.79h-8.63v32.87q0 4.07 1.58 7.68 1.57 3.61 6.47 3.61 3.24 0 5.52-1.87 2.28-1.87 4.32-3.69 2.03-1.83 4.36-1.83 2.15 0 3.03 2.07.87 2.08.87 3.74 0 8.38-5.07 14.53-5.06 6.14-12.65 9.46-7.6 3.32-15.24 3.32"></path><rect width="74.29" height="111.73" x="-37.15" y="-55.87" fill="none" rx="0" ry="0" transform="translate(724.67 398.04)"></rect><path fill="#fff" fill-rule="evenodd" stroke="#273ed4" stroke-width="3.29" d="M384.02 299.4c-79.975-.043-147.163-59.636-147.499-146.45.336-86.982 71.004-146.622 147.67-146.622 87.653 0 145.153 78.595 145.153 146.618 0 23.152 0 24.072-7.716 46.258l-172.916.086c-4.11-.043-7.423-4.404-7.423-8.515 0-4.111 3.398-6.418 7.466-6.418l35.187-.336v-4.025h-57.754a7.41 7.41 0 0 1-7.424-7.424c0-4.111 3.398-7.338 7.467-7.338h57.707l-.042-4.907h-64.921a7.473 7.473 0 0 1-7.424-7.466 7.437 7.437 0 0 1 7.424-7.424h64.963v-4.95h-50.076a7.473 7.473 0 0 1-7.424-7.466c0-4.11 3.398-7.213 7.424-7.131h87.527v-5.235h-30.323c-3.943-.043-7.17-3.355-7.17-7.467s3.815-7.256 7.17-7.256l29.988-.085c22.271 0 37.283 20.046 37.283 34.64h11.952c-2.977-37.746-36.737-74.526-86.101-74.483-57.665-.036-86.814 47.605-86.647 86.945-.167 46.344 37.454 85.848 84.679 86.815 0-14.552 15.015-34.602 37.283-34.602l29.987.086c3.355 0 7.17 3.145 7.17 7.256 0 4.11-3.23 7.423-7.17 7.466h-30.323v5.242h88.198c4.026-.086 7.424 3.02 7.424 7.131a7.473 7.473 0 0 1-7.424 7.467h-50.747v4.949h65.637a7.437 7.437 0 0 1 7.424 7.424 7.473 7.473 0 0 1-7.424 7.466h-65.594l-.043 4.906H515c4.069 0 7.467 3.23 7.467 7.339a7.41 7.41 0 0 1-7.424 7.424h-58.424v4.696l35.857.335c4.068 0 7.466 2.307 7.466 6.418 0 4.111-3.312 8.472-7.423 8.515z"></path></svg></svg>